<?xml version="1.0" encoding="utf-8"?>
<!-- Generator: Adobe Illustrator 26.0.1, SVG Export Plug-In . SVG Version: 6.00 Build 0)  -->
<svg version="1.1" id="Layer_1" xmlns="http://www.w3.org/2000/svg" xmlns:xlink="http://www.w3.org/1999/xlink" x="0px" y="0px"
	 viewBox="0 0 171 91" style="enable-background:new 0 0 171 91;" xml:space="preserve">
<g>
	<path fill="#FFFFFF" d="M30.4,65.2c1,1.2,1.5,2.5,1.5,4.1c0,1.3-0.3,2.4-1,3.4c-0.6,1-1.6,1.8-2.8,2.4c-1.2,0.6-2.7,0.9-4.4,0.9H15V50.9h8.5
		c2.5,0,4.5,0.6,5.8,1.8s2,2.7,2,4.6c0,1.6-0.4,2.8-1.3,3.8c-0.8,1-1.9,1.7-3.2,2C28.2,63.3,29.4,64,30.4,65.2z M17.5,62h5.9
		c1.7,0,3-0.4,3.9-1.2s1.4-1.9,1.4-3.3c0-1.4-0.5-2.5-1.4-3.3S25,53,23.3,53h-5.8V62z M27.8,72.6c1-0.9,1.5-2.1,1.5-3.6
		s-0.5-2.7-1.6-3.6S25.2,64,23.4,64h-5.9v9.8h6C25.3,73.9,26.8,73.5,27.8,72.6z"/>
	<g>
		<path fill="#FFFFFF" d="M72.9,53.4v20.2H40.4V53.4H72.9 M75.4,50.9H37.8v25.2h37.6L75.4,50.9L75.4,50.9z"/>
	</g>
	<path fill="#FFFFFF" d="M126.2,76L120,65.5h-4.6V76h-2.5V50.9h7.6c2.8,0,4.9,0.7,6.4,2c1.5,1.3,2.2,3.1,2.2,5.3c0,1.8-0.5,3.4-1.6,4.7
		c-1,1.3-2.6,2.1-4.6,2.5l6.5,10.7L126.2,76L126.2,76z M115.3,63.5h5.1c2,0,3.5-0.5,4.4-1.4s1.5-2.2,1.5-3.9s-0.5-2.9-1.4-3.8
		c-1-0.9-2.5-1.4-4.5-1.4h-5L115.3,63.5L115.3,63.5z"/>
	<path fill="#FFFFFF" d="M149.9,52.4c2,1,3.5,2.5,4.6,4.4s1.6,4.2,1.6,6.8c0,2.6-0.5,4.8-1.6,6.7s-2.6,3.3-4.6,4.3s-4.4,1.5-7.2,1.5h-7.5V50.9h7.5
		C145.5,50.9,147.9,51.4,149.9,52.4z M150.7,71.2c1.8-1.8,2.8-4.4,2.8-7.7s-0.9-5.9-2.8-7.8c-1.8-1.9-4.5-2.8-8-2.8h-4.9v21h4.9
		C146.2,74,148.9,73,150.7,71.2z"/>
	<path fill="#FFFFFF" d="M106.8,73.5"/>
	<g>
		<polygon fill="#FFFFFF" points="106.8,50.9 105.8,50.9 81.6,50.9 81.6,53.4 102.5,53.4 81.4,74.4 83.2,76.2 104.3,55.2 104.3,76 106.8,76
			106.8,51.9 		"/>
	</g>
	<path fill="#FFFFFF" d="M28.6,14.8v2.1H17.5v9.4h9.4v2.1h-9.4V40H15V14.8H28.6z"/>
	<path fill="#FFFFFF" d="M37.1,14.8v15.8c0,2.5,0.6,4.3,1.8,5.5s2.8,1.8,4.9,1.8c2.1,0,3.7-0.6,4.8-1.8c1.2-1.2,1.7-3,1.7-5.6V14.8h2.5v15.8
		c0,3.2-0.8,5.6-2.5,7.2s-3.9,2.4-6.6,2.4c-2.7,0-4.9-0.8-6.6-2.4c-1.7-1.6-2.5-4-2.5-7.2V14.8H37.1z"/>
	<path fill="#FFFFFF" d="M75.4,14.8v2.1h-7V40h-2.5V16.9h-7v-2.1C58.9,14.8,75.4,14.8,75.4,14.8z"/>
	<path fill="#FFFFFF" d="M83.9,14.8v15.8c0,2.5,0.6,4.3,1.8,5.5s2.8,1.8,4.9,1.8s3.7-0.6,4.8-1.8s1.7-3,1.7-5.6V14.8h2.5v15.8
		c0,3.2-0.8,5.6-2.5,7.2s-3.9,2.4-6.6,2.4s-4.9-0.8-6.6-2.4c-1.7-1.6-2.5-4-2.5-7.2V14.8H83.9z"/>
	<path fill="#FFFFFF" d="M119.1,40l-6.2-10.5h-4.6V40h-2.5V14.8h7.6c2.8,0,4.9,0.7,6.4,2s2.2,3.1,2.2,5.3c0,1.8-0.5,3.4-1.6,4.7
		c-1,1.3-2.6,2.1-4.6,2.5l6.5,10.7H119.1z M108.2,27.4h5.1c2,0,3.5-0.5,4.4-1.4s1.5-2.2,1.5-3.9c0-1.7-0.5-2.9-1.4-3.8
		s-2.5-1.4-4.5-1.4h-5L108.2,27.4L108.2,27.4z"/>
	<path fill="#FFFFFF" d="M130.6,16.9v9.4h9.5v2.1h-9.5v9.5h10.6V40h-13.1V14.8h13.1v2.1H130.6z"/>
</g>
</svg>
